<svg viewBox="10 0 10 35" xmlns="http://www.w3.org/2000/svg"><path d="M12.4 27.5L16 31l3.6-3.5L16 24l-3.6 3.5z" fill="#FFA115"/><path d="M24 8.4a8 8 0 00-5.5 2.2l3 3a3.6 3.6 0 013.8-.8c.7.3 1.3.7 1.7 1.2a3.4 3.4 0 01-1.3 5.2 3.6 3.6 0 01-4-.5l-8.5-8.4a8 8 0 00-12 1.7 7.6 7.6 0 00.2 8.5 7.9 7.9 0 008.1 3.1 8 8 0 004-2l-3-3a3.6 3.6 0 01-3.8.7c-.7-.2-1.2-.6-1.6-1.2A3.4 3.4 0 016.4 13a3.6 3.6 0 013.9.5l8.5 8.4a8 8 0 007.2 1.7 8 8 0 005.5-4.8 7.6 7.6 0 00-1-7.1 7.9 7.9 0 00-6.4-3.3z" fill="#1080CE"/><path d="M12.4 4.6L15.9 8l3.6-3.5L16 1l-3.5 3.5z" fill="#FFA115"/></svg>